<?xml version="1.0" encoding="UTF-8"?> <svg xmlns="http://www.w3.org/2000/svg" width="200" height="39" viewBox="0 0 200 39" fill="none"><path fill-rule="evenodd" clip-rule="evenodd" d="M77.9283 14.2428C77.9283 12.0237 76.6517 11.3986 74.4788 11.3986C73.2189 11.3986 71.9253 11.9769 71.0132 12.7739C69.6865 13.9303 69.1227 15.5242 69.1227 17.1964C69.1227 18.806 69.6036 20.4156 70.8142 21.6032C71.6434 22.4159 72.821 23.0254 74.0482 23.0254C75.9221 23.0254 77.1492 22.5253 78.0615 20.9313L78.1277 20.8219H78.26C78.9897 20.8219 79.421 21.3376 79.421 22.0096C79.421 22.1815 79.4043 22.3534 79.3381 22.5096C78.7409 24.1193 75.6566 24.4631 74.1471 24.4631C72.4726 24.4631 70.7478 23.8848 69.471 22.8691C67.6964 21.447 67 19.3998 67 17.2433C67 15.0398 67.7462 12.9614 69.6202 11.5393C70.98 10.5079 72.7876 9.96094 74.529 9.96094C76.3534 9.96094 79.6531 10.2734 79.6531 12.6175C79.6531 13.102 79.5374 13.6177 79.2057 13.9927C78.9897 14.2428 78.6747 14.4616 78.3262 14.4616C78.2273 14.4616 78.1444 14.4616 78.0615 14.4147L77.9283 14.3678V14.2428ZM89.8023 24.4631C85.5737 24.4631 82.5388 21.1032 82.5388 17.212C82.5388 13.0707 85.1758 9.91402 89.7361 9.91402C94.3793 9.91402 97.0497 12.9926 97.0497 17.212C97.0497 21.2595 94.2636 24.4631 89.8023 24.4631ZM108.21 18.2903C107.315 18.8685 106.121 19.1498 105.059 19.1498C101.61 19.1498 100.333 17.4152 100.333 14.2897V12.1956C100.333 11.4924 100.234 11.1798 99.4371 11.1798H98.973V10.1953H103.816V11.1798H103.218C102.522 11.1798 102.273 11.508 102.273 12.1331V14.321C102.273 16.3994 102.887 17.759 105.275 17.759C105.673 17.759 106.104 17.6808 106.485 17.5714C107.016 17.3995 108.21 16.8838 108.21 16.2275V11.8206C108.21 11.383 107.928 11.1798 107.497 11.1798H106.883V10.1953H111.875V11.1798H111.096C110.532 11.1798 110.167 11.4768 110.167 12.0237V22.1502C110.167 22.619 110.316 23.1192 110.913 23.1192H111.875V24.1193H106.121V23.1192H106.834C107.68 23.1192 108.21 22.7597 108.21 21.9471V18.2903ZM126.203 13.2583C125.125 14.7742 124.048 16.3056 122.953 17.8215C122.074 19.0716 121.195 20.3062 120.299 21.5408C120.001 21.9627 119.686 22.4003 119.371 22.8379C119.205 23.0566 119.039 23.291 118.873 23.4942C118.442 23.9943 118.044 24.4006 117.315 24.4006C116.751 24.4006 116.27 24.0567 116.203 23.5254L116.187 23.4004L116.303 23.3223C116.784 23.0566 117.115 22.5096 117.115 21.9783V12.0862C117.115 11.4455 116.717 11.1798 116.071 11.1798H115.292V10.1953H120.482V11.1798H119.802C119.371 11.1798 119.089 11.5393 119.089 11.9456V20.4625C120.847 17.9465 122.671 15.4461 124.395 12.9145C125.009 12.0081 125.839 10.7736 126.949 10.3672C127.298 10.2422 127.662 10.1953 128.044 10.1953H129.852V11.1798H129.106C128.508 11.1798 128.16 11.4924 128.16 12.0862V22.1034C128.16 22.6347 128.641 23.1192 129.221 23.1192H130.117V24.1193H124.81V23.1192H125.474C125.871 23.1192 126.203 22.7597 126.203 22.3847V13.2583ZM150.465 11.5862H144.196C144.13 11.5862 143.998 11.5862 143.931 11.6175C143.849 11.6956 143.849 11.9612 143.849 12.055V22.2909C143.849 22.8535 144.147 23.1192 144.777 23.1192H145.523V24.1193H140.183V23.1192H140.913C141.228 23.1192 141.527 23.0254 141.709 22.7754C141.792 22.6347 141.858 22.4471 141.858 22.2909V12.1019C141.858 11.5237 141.643 11.1798 140.98 11.1798H140.183V10.1953H154.528V11.1798H153.583C153.019 11.1798 152.869 11.5862 152.869 12.0394V22.2909C152.869 22.4315 152.952 22.6503 153.035 22.7754C153.168 22.9941 153.367 23.1192 153.649 23.1192H154.694V24.1193H149.221V23.1192H149.984C150.564 23.1192 150.896 22.8379 150.896 22.2909V12.1175C150.896 12.0081 150.896 11.7424 150.813 11.6487C150.747 11.5862 150.564 11.5862 150.465 11.5862ZM166.617 23.1192C166.817 23.1035 167.032 23.0097 167.032 22.7754C167.032 22.6503 167.015 22.5409 166.966 22.4159C166.617 21.4939 166.302 20.5563 165.938 19.6499H160.432C160.051 20.4156 159.371 21.869 159.371 22.5878C159.371 22.7441 159.42 23.5567 159.702 23.5723L159.901 23.588V23.7755C159.901 23.9786 159.669 24.1505 159.503 24.2287C159.188 24.4006 158.807 24.4631 158.458 24.4631C157.529 24.4631 157.148 23.7442 157.148 22.9628C157.148 22.0096 157.878 20.7438 158.326 19.8999C159.237 18.2122 160.15 16.5088 160.962 14.7898C161.278 14.1178 162.074 12.4301 162.074 11.7268C162.074 11.3205 161.941 10.9767 161.476 10.9142L161.294 10.8985V10.7266C161.294 10.4923 161.493 10.2891 161.676 10.1797C161.974 9.99215 162.322 9.91402 162.671 9.91402C164.146 9.91402 164.76 11.0861 165.191 12.2269C165.805 13.8678 166.435 15.5087 167.065 17.1339C167.712 18.7903 168.342 20.4468 168.989 22.0877C169.105 22.4003 169.304 22.6816 169.586 22.8847C169.735 22.9941 169.967 23.1192 170.15 23.1192H170.896V24.1193H165.888V23.1192H166.617ZM175.672 11.7737V22.1034C175.672 22.8691 176.203 23.1192 176.932 23.1192H177.745V24.1193H171.874V23.1192H172.736C173.185 23.1192 173.682 22.8535 173.682 22.3847V12.0862C173.682 11.4611 173.251 11.1955 172.637 11.1955H171.874V10.1953H173.865C174.793 10.1953 175.656 10.1016 176.584 9.99215C177.181 9.92966 177.762 9.88281 178.359 9.88281C180.348 9.88281 182.306 10.4453 183.234 12.2425C183.616 12.9614 183.765 13.7584 183.765 14.5553C183.765 17.1964 181.543 19.2123 178.757 19.2123C177.828 19.2123 176.269 18.931 176.269 17.8058C176.269 17.2745 176.817 16.8838 177.347 16.8682L177.579 16.8526V17.0713C177.579 17.2277 177.712 17.4152 177.828 17.5245C178.093 17.7902 178.508 17.8684 178.889 17.8684C180.78 17.8684 181.741 16.2431 181.741 14.6335C181.741 13.8209 181.526 12.9614 180.962 12.3207C180.249 11.4768 179.155 11.1955 178.044 11.1955C177.38 11.1955 176.219 11.383 175.672 11.7737ZM195.805 11.1798H195.274V10.1953H199.768V11.1798H199.553C199.436 11.1798 199.337 11.1798 199.221 11.1798C198.574 11.1798 198.093 11.8518 197.778 12.3207C197.131 13.2895 195.523 16.04 194.13 16.8057C194.594 17.0088 195.025 17.3214 195.357 17.6027C196.07 18.2122 196.667 18.9779 197.065 19.7905C197.446 20.525 198.707 22.9316 199.785 22.9316H200V23.2598C200 24.0567 199.254 24.2756 198.524 24.2756C198.242 24.2756 197.977 24.2287 197.728 24.1193C196.932 23.7442 196.418 22.6816 196.054 21.9783C195.141 20.275 193.781 17.6808 191.426 17.6808C191.211 17.6808 190.249 17.6965 190.249 18.0403V22.3534C190.249 22.7128 190.448 23.1348 190.879 23.1348H191.792V24.1505H186.601V23.1348H187.43C187.845 23.1348 188.292 22.7754 188.292 22.3534V11.8987C188.292 11.4768 187.96 11.3205 187.546 11.3205H186.601V10.1953H191.642V11.3205H190.863C190.448 11.3205 190.249 11.5237 190.249 11.8987V16.2275H191.178C192.388 16.2275 193.366 15.6649 194.047 14.7585C194.345 14.3678 194.627 13.9459 194.893 13.5396C195.141 13.1645 195.39 12.7895 195.622 12.4144C195.738 12.2425 195.888 12.0237 195.971 11.8362H195.987C196.054 11.6799 196.136 11.5237 196.136 11.3674C196.136 11.1955 195.954 11.1955 195.805 11.1798ZM84.6782 17.212C84.6615 20.1499 86.4357 23.041 89.8524 23.0566C93.2852 23.0722 94.9103 20.1343 94.9103 17.212C94.9103 14.1491 93.2852 11.258 89.7026 11.258C86.1709 11.258 84.6949 14.2897 84.6782 17.212ZM163.516 13.1958C163.301 13.6959 163.085 14.1959 162.869 14.696C162.355 15.8524 161.791 16.9776 161.195 18.1028H165.373C164.727 16.4775 164.13 14.8366 163.516 13.1958Z" fill="#FEFEFE"></path><path opacity="0.5" d="M72.6383 34.5888V34.4013C72.4892 34.0574 72.3728 33.7606 72.2732 33.5105C72.1073 33.0729 71.9917 32.7917 71.9247 32.651C71.8585 32.4948 71.7589 32.3854 71.6432 32.3072C71.5268 32.2291 71.3777 32.1978 71.1791 32.1978H70.8139V33.6824C70.8139 33.995 70.8474 34.1825 70.9136 34.245C70.9798 34.3075 71.0962 34.37 71.262 34.4013V34.5888H69.6697V34.4013C69.8523 34.37 69.9679 34.3075 70.0349 34.245C70.0843 34.1668 70.1178 33.9793 70.1178 33.6824V32.1978H69.7693C69.57 32.1978 69.4209 32.2291 69.3045 32.3072C69.1889 32.3854 69.0892 32.4948 69.0063 32.651C68.9401 32.8073 68.8237 33.0886 68.6578 33.5105C68.476 33.995 68.3428 34.3075 68.2934 34.4013V34.5888H67V34.4013C67.2153 34.37 67.3812 34.3075 67.4808 34.1825C67.5965 34.0574 67.6962 33.8699 67.8125 33.6199L68.1603 32.901C68.3763 32.401 68.6913 32.1041 69.0725 31.9947V31.9634C68.9233 31.8697 68.8077 31.7603 68.7248 31.6509C68.6578 31.5259 68.5589 31.3071 68.4425 30.9789C68.3101 30.6507 68.2105 30.432 68.1275 30.3226C68.0446 30.1976 67.9449 30.135 67.8293 30.135C67.6467 30.135 67.547 30.2444 67.4976 30.4476H67.1324V29.6662C67.315 29.6194 67.4808 29.5881 67.5965 29.5881C67.9784 29.5881 68.2432 29.6818 68.393 29.8537C68.5589 30.0413 68.708 30.3538 68.8739 30.807C69.0565 31.3071 69.1888 31.6197 69.3212 31.7134C69.4376 31.8228 69.5868 31.8853 69.7861 31.8853H70.1178V30.557C70.1178 30.2757 70.1011 30.0882 70.0349 30.0101C69.9847 29.9319 69.869 29.8694 69.6697 29.8225V29.6506H71.262V29.8225C71.0795 29.8694 70.9463 29.9475 70.8969 30.0256C70.8474 30.1038 70.8139 30.2757 70.8139 30.557V31.8853H71.1624C71.361 31.8853 71.5108 31.8228 71.6265 31.7134C71.7429 31.604 71.892 31.3071 72.0746 30.807C72.2404 30.3382 72.3896 30.0256 72.5554 29.8537C72.7045 29.6818 72.9701 29.5881 73.3512 29.5881C73.4676 29.5881 73.6335 29.6194 73.8153 29.6662V30.4476H73.4342C73.4007 30.2444 73.285 30.135 73.1024 30.135C72.9861 30.135 72.8704 30.2132 72.7875 30.3382C72.7045 30.4788 72.6049 30.6976 72.5052 30.9789C72.3896 31.3227 72.2732 31.5415 72.1902 31.6665C72.1073 31.7759 72.0077 31.8853 71.8585 31.9634V31.9947C72.2564 32.1041 72.5721 32.401 72.7875 32.901L73.1192 33.6199C73.2516 33.9168 73.368 34.1044 73.4836 34.2138C73.5833 34.3075 73.7491 34.37 73.9485 34.4013V34.5888H72.6383ZM78.4753 34.5888V34.4013C78.6579 34.3544 78.791 34.2919 78.8405 34.2138C78.8899 34.1356 78.9067 33.9637 78.9067 33.6824V32.1353C78.9067 31.6197 78.9234 31.2914 78.9234 31.1508H78.9067L76.7345 33.6824C76.7345 33.9793 76.7505 34.1512 76.8175 34.2293C76.8669 34.3075 76.9833 34.37 77.1819 34.4013V34.5888H75.5735V34.4013C75.7721 34.3544 75.8885 34.2919 75.938 34.2138C75.9882 34.1356 76.0209 33.9637 76.0209 33.6824V30.557C76.0209 30.2288 75.9882 30.0413 75.922 29.9788C75.8551 29.9163 75.7394 29.8694 75.5735 29.8225V29.6506H77.1819V29.8225C76.9993 29.8694 76.8837 29.9163 76.8175 29.9788C76.7673 30.0569 76.7345 30.2444 76.7345 30.557V32.151C76.7345 32.5104 76.7178 32.8073 76.7011 33.0417H76.7345L78.9067 30.5101C78.9067 30.2601 78.8899 30.0882 78.8405 30.0101C78.7743 29.9319 78.6579 29.8694 78.4753 29.8225V29.6506H80.0676V29.8225C79.9018 29.8694 79.7694 29.9163 79.7192 29.9788C79.653 30.0569 79.6195 30.2444 79.6195 30.557V33.6824C79.6195 33.9793 79.653 34.1512 79.7025 34.2293C79.7527 34.3075 79.8851 34.37 80.0676 34.4013V34.5888H78.4753ZM86.4029 34.5888H84.7771V34.4013C84.9931 34.3544 85.1255 34.2919 85.1757 34.1981C85.2084 34.1044 85.2419 33.9325 85.2419 33.6824V29.9631H84.1638C84.1136 30.5882 84.0147 31.2446 83.8656 31.9478C83.6997 32.6667 83.5499 33.2136 83.384 33.6355C83.2182 34.0419 83.0363 34.3075 82.8705 34.4481C82.6879 34.5732 82.4886 34.6513 82.2732 34.6513C82.0579 34.6513 81.8586 34.62 81.676 34.5576V33.8231H82.0579C82.0739 33.995 82.1736 34.0887 82.3227 34.0887C82.4391 34.0887 82.5555 34.0262 82.6544 33.9168C82.7708 33.8074 82.9032 33.5418 83.0523 33.1198C83.1854 32.6979 83.3346 32.1978 83.451 31.604C83.5833 31.0101 83.6328 30.5882 83.6328 30.3069C83.6328 30.135 83.6168 30.0101 83.5499 29.9475C83.5004 29.885 83.4008 29.8382 83.2516 29.8225V29.6506H86.4029V29.8225C86.2203 29.8694 86.0872 29.9319 86.0377 29.9944C85.9882 30.0726 85.9548 30.2601 85.9548 30.557V33.6824C85.9548 33.9637 85.9882 34.1512 86.0377 34.2293C86.0872 34.3075 86.2203 34.37 86.4029 34.4013V34.5888ZM90.3827 34.6513C90.0677 34.6513 89.7855 34.5888 89.5367 34.495C89.2879 34.4013 89.0726 34.2606 88.89 34.0574C88.7074 33.8543 88.575 33.6042 88.4753 33.2761C88.3757 32.9636 88.3262 32.5885 88.3262 32.151C88.3262 31.6197 88.4091 31.1665 88.5917 30.7758C88.7576 30.3851 89.0064 30.0882 89.3381 29.885C89.6531 29.6975 90.0342 29.5881 90.4656 29.5881C90.913 29.5881 91.2949 29.6818 91.6099 29.8694C91.9248 30.0569 92.1569 30.3382 92.306 30.7133C92.4719 31.0727 92.5548 31.5259 92.5548 32.0572C92.5548 32.6197 92.4559 33.0886 92.2733 33.4793C92.1074 33.8699 91.8419 34.1668 91.5269 34.3544C91.1952 34.5419 90.814 34.6513 90.3827 34.6513ZM89.122 32.0572C89.122 32.7917 89.2217 33.3542 89.4537 33.7449C89.6858 34.1356 90.0175 34.3231 90.4656 34.3231C90.7471 34.3231 90.9799 34.245 91.1785 34.0731C91.3611 33.9012 91.5102 33.6668 91.6099 33.3386C91.7095 33.0104 91.759 32.6354 91.759 32.1978C91.759 31.6821 91.6928 31.2446 91.5931 30.9008C91.4767 30.557 91.3116 30.3069 91.1123 30.135C90.9297 29.9788 90.6977 29.9007 90.4321 29.9007C90.2001 29.9007 90.0015 29.9631 89.8356 30.0569C89.6698 30.1663 89.5367 30.3069 89.421 30.4945C89.3214 30.682 89.2384 30.9008 89.1882 31.1665C89.1388 31.4321 89.122 31.729 89.122 32.0572ZM97.3646 34.5888V34.4013C97.5632 34.3544 97.6796 34.2919 97.729 34.2138C97.7785 34.1356 97.812 33.9637 97.812 33.6824V32.1353C97.812 31.6197 97.812 31.2914 97.8287 31.1508H97.812L95.6231 33.6824C95.6231 33.9793 95.6559 34.1512 95.7061 34.2293C95.7555 34.3075 95.8886 34.37 96.0705 34.4013V34.5888H94.4621V34.4013C94.6614 34.3544 94.7938 34.2919 94.8433 34.2138C94.8935 34.1356 94.9262 33.9637 94.9262 33.6824V30.557C94.9262 30.2288 94.8935 30.0413 94.8273 29.9788C94.7444 29.9163 94.628 29.8694 94.4621 29.8225V29.6506H96.0705V29.8225C95.9046 29.8694 95.789 29.9163 95.7228 29.9788C95.6559 30.0569 95.6231 30.2444 95.6231 30.557V32.151C95.6231 32.5104 95.6231 32.8073 95.6064 33.0417H95.6231L97.812 30.5101C97.812 30.2601 97.7785 30.0882 97.729 30.0101C97.6796 29.9319 97.5632 29.8694 97.3646 29.8225V29.6506H98.9562V29.8225C98.7904 29.8694 98.6747 29.9163 98.6078 29.9788C98.5416 30.0569 98.5089 30.2444 98.5089 30.557V33.6824C98.5089 33.9793 98.5416 34.1512 98.5918 34.2293C98.658 34.3075 98.7736 34.37 98.9562 34.4013V34.5888H97.3646ZM97.9946 28.3223C97.9946 28.588 97.8614 28.7911 97.6294 28.9474C97.3806 29.1037 97.0656 29.1662 96.7012 29.1662C96.3025 29.1662 96.0043 29.1037 95.789 28.9474C95.5569 28.8067 95.4573 28.588 95.4573 28.3223V28.166H96.104V28.3223C96.104 28.5098 96.1534 28.6661 96.2363 28.7599C96.336 28.8537 96.4851 28.9005 96.7172 28.9005C96.95 28.9005 97.0991 28.8537 97.1987 28.7599C97.2977 28.6817 97.3479 28.5254 97.3479 28.3223V28.166H97.9946V28.3223ZM106.983 34.5888V34.4013C106.866 34.1668 106.783 33.9481 106.717 33.7762L106.419 33.0417C106.319 32.7917 106.236 32.6197 106.153 32.5104C106.087 32.401 105.988 32.3229 105.888 32.2603C105.772 32.2135 105.623 32.1978 105.441 32.1978H104.976V33.6824C104.976 33.9793 105.009 34.1512 105.059 34.2293C105.126 34.3075 105.241 34.37 105.424 34.4013V34.5888H103.799V34.4013C103.981 34.37 104.097 34.3231 104.163 34.245C104.23 34.1825 104.263 33.995 104.263 33.6824V30.557C104.263 30.2288 104.23 30.0413 104.163 29.9788C104.097 29.9163 103.981 29.8694 103.799 29.8225V29.6506H105.424V29.8225C105.258 29.8694 105.142 29.9163 105.075 29.9788C105.009 30.0569 104.976 30.2444 104.976 30.557V31.8853H105.441C105.656 31.8853 105.805 31.8228 105.938 31.6978C106.054 31.5884 106.203 31.2914 106.386 30.807C106.551 30.3538 106.717 30.0256 106.883 29.8537C107.049 29.6818 107.331 29.5881 107.712 29.5881C107.829 29.5881 107.995 29.6194 108.193 29.6662V30.4945H107.812C107.779 30.2601 107.663 30.135 107.464 30.135C107.347 30.135 107.248 30.1976 107.165 30.2913C107.082 30.4007 106.966 30.6351 106.817 30.9789C106.7 31.2758 106.602 31.4946 106.519 31.6197C106.419 31.7603 106.303 31.8697 106.153 31.9634V31.9947C106.568 32.1197 106.9 32.4166 107.132 32.8854L107.464 33.6199C107.596 33.9012 107.712 34.0887 107.829 34.1981C107.928 34.3231 108.078 34.3857 108.293 34.4013V34.5888H106.983ZM111.809 34.6513C111.494 34.6513 111.228 34.5888 110.963 34.495C110.714 34.4013 110.498 34.2606 110.316 34.0574C110.133 33.8543 110.001 33.6042 109.901 33.2761C109.802 32.9636 109.752 32.5885 109.752 32.151C109.752 31.6197 109.835 31.1665 110.018 30.7758C110.183 30.3851 110.432 30.0882 110.764 29.885C111.079 29.6975 111.46 29.5881 111.891 29.5881C112.339 29.5881 112.721 29.6818 113.036 29.8694C113.351 30.0569 113.583 30.3382 113.749 30.7133C113.898 31.0727 113.981 31.5259 113.981 32.0572C113.981 32.6197 113.882 33.0886 113.716 33.4793C113.533 33.8699 113.285 34.1668 112.953 34.3544C112.621 34.5419 112.24 34.6513 111.809 34.6513ZM110.548 32.0572C110.548 32.7917 110.664 33.3542 110.896 33.7449C111.112 34.1356 111.46 34.3231 111.891 34.3231C112.174 34.3231 112.406 34.245 112.604 34.0731C112.804 33.9012 112.936 33.6668 113.036 33.3386C113.135 33.0104 113.185 32.6354 113.185 32.1978C113.185 31.6821 113.135 31.2446 113.019 30.9008C112.903 30.557 112.753 30.3069 112.555 30.135C112.356 29.9788 112.124 29.9007 111.858 29.9007C111.626 29.9007 111.427 29.9631 111.262 30.0569C111.096 30.1663 110.963 30.3069 110.864 30.4945C110.747 30.682 110.664 30.9008 110.615 31.1665C110.565 31.4321 110.548 31.729 110.548 32.0572ZM121.377 29.8225C121.261 29.8537 121.178 29.885 121.128 29.9007C121.079 29.9319 121.046 29.9631 121.012 30.0101C120.979 30.0413 120.963 30.1038 120.946 30.182C120.929 30.2601 120.929 30.3851 120.929 30.557V33.6824C120.929 33.8387 120.929 33.9637 120.946 34.0419C120.963 34.1044 120.979 34.1668 120.996 34.2138C121.029 34.2606 121.079 34.2919 121.128 34.3231C121.178 34.3544 121.261 34.3857 121.377 34.4013V34.5888H119.785V34.4013C119.918 34.37 120.018 34.3387 120.084 34.2919C120.133 34.245 120.184 34.1825 120.2 34.1044C120.216 34.0106 120.233 33.8699 120.233 33.6824V32.2916C120.233 31.9322 120.233 31.5571 120.25 31.1821C120.25 30.8227 120.266 30.557 120.282 30.432H120.216L118.691 34.0106H118.259L116.85 30.3695H116.783C116.783 30.5101 116.8 30.7758 116.817 31.1665C116.834 31.5571 116.834 31.9478 116.834 32.3541V33.6824C116.834 33.8387 116.834 33.9637 116.85 34.0419C116.866 34.1044 116.883 34.1668 116.917 34.2138C116.933 34.2606 116.966 34.2919 117.032 34.3231C117.082 34.3544 117.165 34.3857 117.281 34.4013V34.5888H115.888V34.4013C116.037 34.37 116.154 34.3231 116.203 34.2763C116.253 34.2293 116.286 34.1668 116.303 34.0731C116.319 33.995 116.336 33.8543 116.336 33.6824V30.557C116.336 30.3851 116.319 30.2601 116.303 30.182C116.303 30.1194 116.269 30.0569 116.253 30.0101C116.22 29.9631 116.186 29.9319 116.137 29.9163C116.087 29.885 116.004 29.8537 115.888 29.8225V29.6506H117.248L118.591 33.1667L120.084 29.6506H121.377V29.8225ZM127.679 29.6506V29.8225C127.53 29.8537 127.43 29.9007 127.381 29.9319C127.314 29.9788 127.281 30.0413 127.264 30.135C127.231 30.2132 127.231 30.3538 127.231 30.557V33.6824C127.231 33.8231 127.231 33.9325 127.248 33.995C127.248 34.0731 127.264 34.12 127.281 34.1668C127.298 34.2138 127.314 34.245 127.347 34.2606C127.364 34.2919 127.413 34.3231 127.447 34.3387C127.496 34.3544 127.579 34.3857 127.679 34.4013V34.5888H126.054V34.4013C126.203 34.37 126.303 34.3387 126.352 34.2919C126.418 34.2606 126.452 34.1981 126.469 34.1044C126.501 34.0262 126.501 33.8855 126.501 33.6824V29.9788H124.478V33.6824C124.478 33.8387 124.478 33.9637 124.495 34.0419C124.495 34.1044 124.528 34.1668 124.544 34.2138C124.578 34.2606 124.611 34.2919 124.661 34.3231C124.71 34.3544 124.81 34.3857 124.926 34.4013V34.5888H123.301V34.4013C123.466 34.37 123.566 34.3231 123.616 34.2763C123.682 34.2293 123.715 34.1668 123.732 34.0731C123.749 33.995 123.749 33.8543 123.749 33.6824V30.557C123.749 30.3851 123.749 30.2601 123.732 30.182C123.715 30.1194 123.699 30.0569 123.666 30.0101C123.649 29.9631 123.6 29.9319 123.549 29.9163C123.5 29.885 123.417 29.8537 123.301 29.8225V29.6506H127.679ZM133.998 34.5888H132.372V34.4013C132.588 34.3544 132.72 34.2919 132.77 34.1981C132.82 34.1044 132.837 33.9325 132.837 33.6824V29.9631H131.775C131.709 30.5882 131.609 31.2446 131.46 31.9478C131.311 32.6667 131.145 33.2136 130.979 33.6355C130.814 34.0419 130.648 34.3075 130.465 34.4481C130.282 34.5732 130.1 34.6513 129.868 34.6513C129.653 34.6513 129.453 34.62 129.271 34.5576V33.8231H129.653C129.669 33.995 129.768 34.0887 129.918 34.0887C130.034 34.0887 130.15 34.0262 130.266 33.9168C130.365 33.8074 130.499 33.5418 130.648 33.1198C130.797 32.6979 130.929 32.1978 131.046 31.604C131.178 31.0101 131.244 30.5882 131.244 30.3069C131.244 30.135 131.211 30.0101 131.145 29.9475C131.095 29.885 130.995 29.8382 130.846 29.8225V29.6506H133.998V29.8225C133.815 29.8694 133.683 29.9319 133.632 29.9944C133.583 30.0726 133.549 30.2601 133.549 30.557V33.6824C133.549 33.9637 133.583 34.1512 133.632 34.2293C133.683 34.3075 133.815 34.37 133.998 34.4013V34.5888ZM139.519 29.6506V30.7445H139.138C139.105 30.6195 139.072 30.5257 139.022 30.432C138.989 30.3382 138.939 30.2601 138.89 30.1976C138.856 30.1507 138.807 30.0882 138.757 30.0569C138.707 30.0256 138.641 29.9944 138.575 29.9788C138.492 29.9788 138.409 29.9631 138.309 29.9631H137.099V31.854H137.911C138.027 31.854 138.126 31.854 138.177 31.8228C138.243 31.7916 138.309 31.729 138.342 31.6665C138.392 31.5884 138.425 31.479 138.458 31.3227H138.823V32.7135H138.458C138.425 32.5729 138.392 32.4635 138.342 32.3854C138.309 32.3072 138.243 32.2603 138.193 32.2291C138.126 32.1978 138.044 32.1822 137.911 32.1822H137.099V34.2606H138.292C138.409 34.2606 138.524 34.2606 138.591 34.2293C138.674 34.2138 138.74 34.1825 138.79 34.1356C138.856 34.0887 138.906 34.0106 138.939 33.9325C138.989 33.8543 139.022 33.7762 139.055 33.698C139.089 33.6042 139.122 33.4793 139.172 33.323H139.553L139.487 34.5888H135.921V34.4013C136.087 34.37 136.203 34.3231 136.253 34.2763C136.303 34.2293 136.335 34.1668 136.352 34.0731C136.369 33.995 136.386 33.8543 136.386 33.6824V30.557C136.386 30.3851 136.369 30.2601 136.352 30.182C136.352 30.1194 136.319 30.0569 136.303 30.0101C136.269 29.9631 136.22 29.9319 136.186 29.9163C136.137 29.885 136.054 29.8537 135.921 29.8225V29.6506H139.519ZM144.628 34.5888V34.4013C144.511 34.1668 144.428 33.9481 144.362 33.7762L144.064 33.0417C143.964 32.7917 143.881 32.6197 143.798 32.5104C143.715 32.401 143.632 32.3229 143.516 32.2603C143.417 32.2135 143.267 32.1978 143.085 32.1978H142.621V33.6824C142.621 33.9793 142.654 34.1512 142.703 34.2293C142.754 34.3075 142.886 34.37 143.069 34.4013V34.5888H141.444V34.4013C141.626 34.37 141.742 34.3231 141.808 34.245C141.874 34.1825 141.908 33.995 141.908 33.6824V30.557C141.908 30.2288 141.874 30.0413 141.808 29.9788C141.742 29.9163 141.609 29.8694 141.444 29.8225V29.6506H143.069V29.8225C142.903 29.8694 142.786 29.9163 142.72 29.9788C142.654 30.0569 142.621 30.2444 142.621 30.557V31.8853H143.085C143.284 31.8853 143.45 31.8228 143.566 31.6978C143.699 31.5884 143.848 31.2914 144.03 30.807C144.196 30.3538 144.362 30.0256 144.528 29.8537C144.694 29.6818 144.976 29.5881 145.357 29.5881C145.473 29.5881 145.639 29.6194 145.821 29.6662V30.4945H145.457C145.423 30.2601 145.308 30.135 145.108 30.135C144.992 30.135 144.893 30.1976 144.81 30.2913C144.727 30.4007 144.611 30.6351 144.462 30.9789C144.345 31.2758 144.246 31.4946 144.163 31.6197C144.064 31.7603 143.947 31.8697 143.798 31.9634V31.9947C144.213 32.1197 144.545 32.4166 144.777 32.8854L145.108 33.6199C145.241 33.9012 145.357 34.0887 145.473 34.1981C145.572 34.3231 145.722 34.3857 145.938 34.4013V34.5888H144.628ZM150.946 29.76V30.7601H150.564C150.498 30.5414 150.415 30.3695 150.332 30.2601C150.232 30.135 150.117 30.0413 150 29.9944C149.868 29.9319 149.719 29.9007 149.536 29.9007C149.287 29.9007 149.039 29.9944 148.839 30.1507C148.641 30.3226 148.475 30.5726 148.359 30.9008C148.243 31.229 148.176 31.6352 148.176 32.1041C148.176 32.5729 148.226 32.9792 148.326 33.3074C148.425 33.6512 148.558 33.9012 148.756 34.0731C148.939 34.245 149.171 34.3231 149.453 34.3231C149.669 34.3231 149.834 34.2919 149.968 34.245C150.1 34.1825 150.216 34.0887 150.299 33.9637C150.398 33.8543 150.481 33.6668 150.564 33.4324H150.946V34.4638C150.697 34.5263 150.448 34.5732 150.2 34.6044C149.951 34.6357 149.669 34.6513 149.37 34.6513C148.724 34.6513 148.226 34.4325 147.894 34.0262C147.563 33.6042 147.397 32.9948 147.397 32.1666C147.397 31.6509 147.48 31.1977 147.662 30.807C147.828 30.4163 148.077 30.1194 148.425 29.9007C148.756 29.6975 149.154 29.5881 149.619 29.5881C149.851 29.5881 150.067 29.6037 150.266 29.6194C150.464 29.6506 150.681 29.6818 150.946 29.76Z" fill="#FEFEFE"></path><path fill-rule="evenodd" clip-rule="evenodd" d="M61.1934 17.1713C52.3875 29.5794 41.3926 39.0495 23.8803 36.6429C18.0264 35.8459 13.6317 34.3769 12.2221 33.9082C10.8125 33.4237 10.7296 33.3768 10.7296 33.3768C10.7296 33.3768 7.79425 34.3614 6.53392 34.9864C5.27357 35.6115 0 38.0494 0 38.0494C0 38.0494 5.60524 33.3924 9.15412 31.6109C12.7196 29.8451 17.3298 27.7822 17.3298 27.7822C17.3298 27.7822 19.353 27.5166 23.1175 28.2667C26.8819 29.0168 35.0411 31.2359 35.0411 31.2359C35.0411 31.2359 30.265 29.2199 27.6614 28.2823C25.0577 27.3603 21.2933 26.2351 21.2933 26.2351C25.3563 24.6099 29.0212 22.7033 33.4988 23.8442L42.6529 26.157L33.93 22.5784C33.2335 22.2971 41.1604 20.3905 43.8138 21.0313C44.7424 21.2656 49.1868 22.594 49.1868 22.594L43.4821 20.3593C45.3892 19.4217 51.4919 19.0779 53.9463 18.8122C53.9463 18.8122 48.822 18.8278 46.3013 19.0153C43.7806 19.1872 34.0958 20.5781 34.0958 20.5781C34.0958 20.5781 29.5851 21.2813 25.4392 22.3908C21.2933 23.4848 16.5172 24.8443 14.776 25.5945C13.0181 26.3445 10.9783 26.9384 10.232 27.4697C9.48583 27.9854 11.5256 24.4849 11.5256 24.4849C11.5256 24.4849 14.2619 20.7812 15.6217 19.5311C16.9815 18.2808 18.8389 16.89 19.6018 16.515C20.3646 16.1399 20.3646 16.1399 20.3646 16.1399V3.90375L25.5718 0.950195V20.203H26.998V17.1401L29.3861 19.2654H30.9449V2.80984L33.4988 1.43464L37.4457 3.71622V5.26333L34.7924 3.71622V18.4215H36.3843V14.9679L38.4573 16.4212V18.0777H39.9995V8.92012L44.0459 6.71666V17.6714C44.0459 17.6714 45.6711 17.5776 47.0144 17.5308L45.638 16.4837V13.7333L47.8767 15.4367V17.5151C49.0542 17.4995 49.4025 17.5464 49.4025 17.5464V14.9992C49.4025 14.9992 52.5036 15.2492 56.1188 15.9211C59.7174 16.5931 61.1934 17.1713 61.1934 17.1713ZM45.638 9.02953L47.8767 10.7329V13.4832L45.638 11.7799V9.02953ZM36.4009 10.5297L38.6397 12.2487V14.9992L36.4009 13.2801V10.5297ZM36.4009 5.57588L38.6397 7.29488V10.0452L36.4009 8.32624V5.57588ZM27.081 3.65372L29.4192 5.45085V7.63868L27.081 5.85716V3.65372ZM27.081 8.3888L29.4192 10.1703V12.3738L27.081 10.5766V8.3888ZM27.081 13.0301L29.4192 14.8273V17.0307L27.081 15.2335V13.0301Z" fill="url(#paint0_linear_5454_137)"></path><path fill-rule="evenodd" clip-rule="evenodd" d="M53.3163 23.6094C51.4589 29.9385 41.7907 35.2518 30.1657 35.9393C23.2337 36.3613 17.0149 35.0486 12.7197 32.6264C17.1641 33.8765 22.5538 34.4548 28.3415 34.1266C40.4143 33.4546 50.381 29.0321 53.3163 23.6094Z" fill="url(#paint1_linear_5454_137)"></path><defs><linearGradient id="paint0_linear_5454_137" x1="-0.000995015" y1="19.497" x2="61.1927" y2="19.497" gradientUnits="userSpaceOnUse"><stop stop-color="#579F36"></stop><stop offset="1" stop-color="#ADCD63"></stop></linearGradient><linearGradient id="paint1_linear_5454_137" x1="12.7217" y1="29.8114" x2="53.3141" y2="29.8114" gradientUnits="userSpaceOnUse"><stop stop-color="#81BC4C"></stop><stop offset="1" stop-color="#A6C85F"></stop></linearGradient></defs></svg> 