<?xml version="1.0" encoding="UTF-8"?> <svg xmlns="http://www.w3.org/2000/svg" width="200" height="38" viewBox="0 0 200 38" fill="none"><path fill-rule="evenodd" clip-rule="evenodd" d="M77.9283 13.2926C77.9283 11.0735 76.6517 10.4484 74.4788 10.4484C73.2189 10.4484 71.9253 11.0267 71.0132 11.8237C69.6865 12.9801 69.1227 14.574 69.1227 16.2462C69.1227 17.8558 69.6036 19.4654 70.8142 20.6531C71.6434 21.4657 72.821 22.0752 74.0482 22.0752C75.9221 22.0752 77.1492 21.5751 78.0615 19.9811L78.1277 19.8717H78.26C78.9897 19.8717 79.421 20.3874 79.421 21.0594C79.421 21.2313 79.4043 21.4032 79.3381 21.5594C78.7409 23.1691 75.6566 23.5129 74.1471 23.5129C72.4726 23.5129 70.7478 22.9347 69.471 21.9189C67.6964 20.4968 67 18.4497 67 16.2931C67 14.0896 67.7462 12.0112 69.6202 10.5891C70.98 9.5577 72.7876 9.01074 74.529 9.01074C76.3534 9.01074 79.6531 9.32325 79.6531 11.6673C79.6531 12.1518 79.5374 12.6675 79.2057 13.0426C78.9897 13.2926 78.6747 13.5114 78.3262 13.5114C78.2273 13.5114 78.1444 13.5114 78.0615 13.4645L77.9283 13.4176V13.2926ZM89.8023 23.5129C85.5737 23.5129 82.5388 20.153 82.5388 16.2618C82.5388 12.1205 85.1758 8.96382 89.7361 8.96382C94.3793 8.96382 97.0497 12.0424 97.0497 16.2618C97.0497 20.3093 94.2636 23.5129 89.8023 23.5129ZM108.21 17.3401C107.315 17.9183 106.121 18.1996 105.059 18.1996C101.61 18.1996 100.333 16.465 100.333 13.3395V11.2454C100.333 10.5422 100.234 10.2296 99.4371 10.2296H98.973V9.24512H103.816V10.2296H103.218C102.522 10.2296 102.273 10.5579 102.273 11.1829V13.3708C102.273 15.4492 102.887 16.8088 105.275 16.8088C105.673 16.8088 106.104 16.7306 106.485 16.6212C107.016 16.4493 108.21 15.9336 108.21 15.2773V10.8704C108.21 10.4328 107.928 10.2296 107.497 10.2296H106.883V9.24512H111.875V10.2296H111.096C110.532 10.2296 110.167 10.5266 110.167 11.0735V21.2C110.167 21.6688 110.316 22.169 110.913 22.169H111.875V23.1691H106.121V22.169H106.834C107.68 22.169 108.21 21.8095 108.21 20.9969V17.3401ZM126.203 12.3081C125.125 13.824 124.048 15.3554 122.953 16.8713C122.074 18.1214 121.195 19.356 120.299 20.5906C120.001 21.0125 119.686 21.4501 119.371 21.8877C119.205 22.1064 119.039 22.3408 118.873 22.544C118.442 23.0441 118.044 23.4504 117.315 23.4504C116.751 23.4504 116.27 23.1065 116.203 22.5752L116.187 22.4503L116.303 22.3721C116.784 22.1064 117.115 21.5594 117.115 21.0281V11.136C117.115 10.4953 116.717 10.2296 116.071 10.2296H115.292V9.24512H120.482V10.2296H119.802C119.371 10.2296 119.089 10.5891 119.089 10.9954V19.5123C120.847 16.9963 122.671 14.4959 124.395 11.9643C125.009 11.0579 125.839 9.82336 126.949 9.41702C127.298 9.29204 127.662 9.24512 128.044 9.24512H129.852V10.2296H129.106C128.508 10.2296 128.16 10.5422 128.16 11.136V21.1532C128.16 21.6845 128.641 22.169 129.221 22.169H130.117V23.1691H124.81V22.169H125.474C125.871 22.169 126.203 21.8095 126.203 21.4345V12.3081ZM150.465 10.636H144.196C144.13 10.636 143.998 10.636 143.931 10.6673C143.849 10.7454 143.849 11.011 143.849 11.1048V21.3407C143.849 21.9033 144.147 22.169 144.777 22.169H145.523V23.1691H140.183V22.169H140.913C141.228 22.169 141.527 22.0752 141.709 21.8252C141.792 21.6845 141.858 21.497 141.858 21.3407V11.1517C141.858 10.5735 141.643 10.2296 140.98 10.2296H140.183V9.24512H154.528V10.2296H153.583C153.019 10.2296 152.869 10.636 152.869 11.0892V21.3407C152.869 21.4813 152.952 21.7001 153.035 21.8252C153.168 22.0439 153.367 22.169 153.649 22.169H154.694V23.1691H149.221V22.169H149.984C150.564 22.169 150.896 21.8877 150.896 21.3407V11.1673C150.896 11.0579 150.896 10.7922 150.813 10.6985C150.747 10.636 150.564 10.636 150.465 10.636ZM166.617 22.169C166.817 22.1533 167.032 22.0595 167.032 21.8252C167.032 21.7001 167.015 21.5907 166.966 21.4657C166.617 20.5437 166.302 19.6061 165.938 18.6997H160.432C160.051 19.4654 159.371 20.9188 159.371 21.6376C159.371 21.7939 159.42 22.6065 159.702 22.6221L159.901 22.6378V22.8253C159.901 23.0284 159.669 23.2003 159.503 23.2785C159.188 23.4504 158.807 23.5129 158.458 23.5129C157.529 23.5129 157.148 22.794 157.148 22.0126C157.148 21.0594 157.878 19.7936 158.326 18.9497C159.237 17.262 160.15 15.5586 160.962 13.8396C161.278 13.1676 162.074 11.4799 162.074 10.7766C162.074 10.3703 161.941 10.0265 161.476 9.96397L161.294 9.94833V9.77644C161.294 9.54206 161.493 9.33889 161.676 9.22948C161.974 9.04195 162.322 8.96382 162.671 8.96382C164.146 8.96382 164.76 10.1359 165.191 11.2767C165.805 12.9176 166.435 14.5585 167.065 16.1837C167.712 17.8401 168.342 19.4966 168.989 21.1375C169.105 21.4501 169.304 21.7314 169.586 21.9345C169.735 22.0439 169.967 22.169 170.15 22.169H170.896V23.1691H165.888V22.169H166.617ZM175.672 10.8235V21.1532C175.672 21.9189 176.203 22.169 176.932 22.169H177.745V23.1691H171.874V22.169H172.736C173.185 22.169 173.682 21.9033 173.682 21.4345V11.136C173.682 10.5109 173.251 10.2453 172.637 10.2453H171.874V9.24512H173.865C174.793 9.24512 175.656 9.15136 176.584 9.04195C177.181 8.97946 177.762 8.93262 178.359 8.93262C180.348 8.93262 182.306 9.49514 183.234 11.2923C183.616 12.0112 183.765 12.8082 183.765 13.6052C183.765 16.2462 181.543 18.2621 178.757 18.2621C177.828 18.2621 176.269 17.9808 176.269 16.8556C176.269 16.3243 176.817 15.9336 177.347 15.918L177.579 15.9024V16.1211C177.579 16.2775 177.712 16.465 177.828 16.5743C178.093 16.84 178.508 16.9182 178.889 16.9182C180.78 16.9182 181.741 15.2929 181.741 13.6833C181.741 12.8707 181.526 12.0112 180.962 11.3705C180.249 10.5266 179.155 10.2453 178.044 10.2453C177.38 10.2453 176.219 10.4328 175.672 10.8235ZM195.805 10.2296H195.274V9.24512H199.768V10.2296H199.553C199.436 10.2296 199.337 10.2296 199.221 10.2296C198.574 10.2296 198.093 10.9016 197.778 11.3705C197.131 12.3393 195.523 15.0898 194.13 15.8555C194.594 16.0586 195.025 16.3712 195.357 16.6525C196.07 17.262 196.667 18.0277 197.065 18.8403C197.446 19.5748 198.707 21.9814 199.785 21.9814H200V22.3096C200 23.1065 199.254 23.3254 198.524 23.3254C198.242 23.3254 197.977 23.2785 197.728 23.1691C196.932 22.794 196.418 21.7314 196.054 21.0281C195.141 19.3248 193.781 16.7306 191.426 16.7306C191.211 16.7306 190.249 16.7463 190.249 17.0901V21.4032C190.249 21.7626 190.448 22.1846 190.879 22.1846H191.792V23.2003H186.601V22.1846H187.43C187.845 22.1846 188.292 21.8252 188.292 21.4032V10.9485C188.292 10.5266 187.96 10.3703 187.546 10.3703H186.601V9.24512H191.642V10.3703H190.863C190.448 10.3703 190.249 10.5735 190.249 10.9485V15.2773H191.178C192.388 15.2773 193.366 14.7147 194.047 13.8083C194.345 13.4176 194.627 12.9957 194.893 12.5894C195.141 12.2143 195.39 11.8393 195.622 11.4642C195.738 11.2923 195.888 11.0735 195.971 10.886H195.987C196.054 10.7297 196.136 10.5735 196.136 10.4172C196.136 10.2453 195.954 10.2453 195.805 10.2296ZM84.6782 16.2618C84.6615 19.1997 86.4357 22.0908 89.8524 22.1064C93.2852 22.122 94.9103 19.1841 94.9103 16.2618C94.9103 13.1989 93.2852 10.3078 89.7026 10.3078C86.1709 10.3078 84.6949 13.3395 84.6782 16.2618ZM163.516 12.2456C163.301 12.7457 163.085 13.2457 162.869 13.7458C162.355 14.9022 161.791 16.0274 161.195 17.1526H165.373C164.727 15.5273 164.13 13.8865 163.516 12.2456Z" fill="#141414"></path><path opacity="0.5" d="M72.6383 33.6386V33.4511C72.4892 33.1072 72.3728 32.8104 72.2732 32.5603C72.1073 32.1227 71.9917 31.8415 71.9247 31.7008C71.8585 31.5446 71.7589 31.4352 71.6432 31.357C71.5268 31.2789 71.3777 31.2476 71.1791 31.2476H70.8139V32.7323C70.8139 33.0448 70.8474 33.2323 70.9136 33.2948C70.9798 33.3573 71.0962 33.4198 71.262 33.4511V33.6386H69.6697V33.4511C69.8523 33.4198 69.9679 33.3573 70.0349 33.2948C70.0843 33.2167 70.1178 33.0291 70.1178 32.7323V31.2476H69.7693C69.57 31.2476 69.4209 31.2789 69.3045 31.357C69.1889 31.4352 69.0892 31.5446 69.0063 31.7008C68.9401 31.8571 68.8237 32.1384 68.6578 32.5603C68.476 33.0448 68.3428 33.3573 68.2934 33.4511V33.6386H67V33.4511C67.2153 33.4198 67.3812 33.3573 67.4808 33.2323C67.5965 33.1072 67.6962 32.9197 67.8125 32.6697L68.1603 31.9508C68.3763 31.4508 68.6913 31.1539 69.0725 31.0445V31.0132C68.9233 30.9195 68.8077 30.8101 68.7248 30.7007C68.6578 30.5757 68.5589 30.3569 68.4425 30.0287C68.3101 29.7005 68.2105 29.4818 68.1275 29.3724C68.0446 29.2474 67.9449 29.1848 67.8293 29.1848C67.6467 29.1848 67.547 29.2942 67.4976 29.4974H67.1324V28.716C67.315 28.6692 67.4808 28.6379 67.5965 28.6379C67.9784 28.6379 68.2432 28.7316 68.393 28.9035C68.5589 29.0911 68.708 29.4037 68.8739 29.8568C69.0565 30.3569 69.1888 30.6695 69.3212 30.7632C69.4376 30.8726 69.5868 30.9351 69.7861 30.9351H70.1178V29.6068C70.1178 29.3255 70.1011 29.138 70.0349 29.0599C69.9847 28.9817 69.869 28.9192 69.6697 28.8723V28.7004H71.262V28.8723C71.0795 28.9192 70.9463 28.9973 70.8969 29.0754C70.8474 29.1536 70.8139 29.3255 70.8139 29.6068V30.9351H71.1624C71.361 30.9351 71.5108 30.8726 71.6265 30.7632C71.7429 30.6538 71.892 30.3569 72.0746 29.8568C72.2404 29.388 72.3896 29.0754 72.5554 28.9035C72.7045 28.7316 72.9701 28.6379 73.3512 28.6379C73.4676 28.6379 73.6335 28.6692 73.8153 28.716V29.4974H73.4342C73.4007 29.2942 73.285 29.1848 73.1024 29.1848C72.9861 29.1848 72.8704 29.263 72.7875 29.388C72.7045 29.5286 72.6049 29.7474 72.5052 30.0287C72.3896 30.3725 72.2732 30.5913 72.1902 30.7163C72.1073 30.8257 72.0077 30.9351 71.8585 31.0132V31.0445C72.2564 31.1539 72.5721 31.4508 72.7875 31.9508L73.1192 32.6697C73.2516 32.9666 73.368 33.1542 73.4836 33.2636C73.5833 33.3573 73.7491 33.4198 73.9485 33.4511V33.6386H72.6383ZM78.4753 33.6386V33.4511C78.6579 33.4042 78.791 33.3417 78.8405 33.2636C78.8899 33.1854 78.9067 33.0135 78.9067 32.7323V31.1851C78.9067 30.6695 78.9234 30.3412 78.9234 30.2006H78.9067L76.7345 32.7323C76.7345 33.0291 76.7505 33.201 76.8175 33.2791C76.8669 33.3573 76.9833 33.4198 77.1819 33.4511V33.6386H75.5735V33.4511C75.7721 33.4042 75.8885 33.3417 75.938 33.2636C75.9882 33.1854 76.0209 33.0135 76.0209 32.7323V29.6068C76.0209 29.2786 75.9882 29.0911 75.922 29.0286C75.8551 28.9661 75.7394 28.9192 75.5735 28.8723V28.7004H77.1819V28.8723C76.9993 28.9192 76.8837 28.9661 76.8175 29.0286C76.7673 29.1067 76.7345 29.2942 76.7345 29.6068V31.2008C76.7345 31.5602 76.7178 31.8571 76.7011 32.0915H76.7345L78.9067 29.5599C78.9067 29.3099 78.8899 29.138 78.8405 29.0599C78.7743 28.9817 78.6579 28.9192 78.4753 28.8723V28.7004H80.0676V28.8723C79.9018 28.9192 79.7694 28.9661 79.7192 29.0286C79.653 29.1067 79.6195 29.2942 79.6195 29.6068V32.7323C79.6195 33.0291 79.653 33.201 79.7025 33.2791C79.7527 33.3573 79.8851 33.4198 80.0676 33.4511V33.6386H78.4753ZM86.4029 33.6386H84.7771V33.4511C84.9931 33.4042 85.1255 33.3417 85.1757 33.2479C85.2084 33.1542 85.2419 32.9823 85.2419 32.7323V29.0129H84.1638C84.1136 29.638 84.0147 30.2944 83.8656 30.9976C83.6997 31.7165 83.5499 32.2634 83.384 32.6853C83.2182 33.0917 83.0363 33.3573 82.8705 33.4979C82.6879 33.623 82.4886 33.7011 82.2732 33.7011C82.0579 33.7011 81.8586 33.6698 81.676 33.6074V32.8729H82.0579C82.0739 33.0448 82.1736 33.1385 82.3227 33.1385C82.4391 33.1385 82.5555 33.076 82.6544 32.9666C82.7708 32.8572 82.9032 32.5916 83.0523 32.1697C83.1854 31.7477 83.3346 31.2476 83.451 30.6538C83.5833 30.0599 83.6328 29.638 83.6328 29.3567C83.6328 29.1848 83.6168 29.0599 83.5499 28.9973C83.5004 28.9348 83.4008 28.888 83.2516 28.8723V28.7004H86.4029V28.8723C86.2203 28.9192 86.0872 28.9817 86.0377 29.0442C85.9882 29.1224 85.9548 29.3099 85.9548 29.6068V32.7323C85.9548 33.0135 85.9882 33.201 86.0377 33.2791C86.0872 33.3573 86.2203 33.4198 86.4029 33.4511V33.6386ZM90.3827 33.7011C90.0677 33.7011 89.7855 33.6386 89.5367 33.5448C89.2879 33.4511 89.0726 33.3104 88.89 33.1072C88.7074 32.9041 88.575 32.6541 88.4753 32.3259C88.3757 32.0134 88.3262 31.6383 88.3262 31.2008C88.3262 30.6695 88.4091 30.2163 88.5917 29.8256C88.7576 29.4349 89.0064 29.138 89.3381 28.9348C89.6531 28.7473 90.0342 28.6379 90.4656 28.6379C90.913 28.6379 91.2949 28.7316 91.6099 28.9192C91.9248 29.1067 92.1569 29.388 92.306 29.7631C92.4719 30.1225 92.5548 30.5757 92.5548 31.107C92.5548 31.6695 92.4559 32.1384 92.2733 32.5291C92.1074 32.9197 91.8419 33.2167 91.5269 33.4042C91.1952 33.5917 90.814 33.7011 90.3827 33.7011ZM89.122 31.107C89.122 31.8415 89.2217 32.404 89.4537 32.7947C89.6858 33.1854 90.0175 33.3729 90.4656 33.3729C90.7471 33.3729 90.9799 33.2948 91.1785 33.1229C91.3611 32.951 91.5102 32.7166 91.6099 32.3884C91.7095 32.0602 91.759 31.6852 91.759 31.2476C91.759 30.732 91.6928 30.2944 91.5931 29.9506C91.4767 29.6068 91.3116 29.3567 91.1123 29.1848C90.9297 29.0286 90.6977 28.9505 90.4321 28.9505C90.2001 28.9505 90.0015 29.0129 89.8356 29.1067C89.6698 29.2161 89.5367 29.3567 89.421 29.5443C89.3214 29.7318 89.2384 29.9506 89.1882 30.2163C89.1388 30.4819 89.122 30.7788 89.122 31.107ZM97.3646 33.6386V33.4511C97.5632 33.4042 97.6796 33.3417 97.729 33.2636C97.7785 33.1854 97.812 33.0135 97.812 32.7323V31.1851C97.812 30.6695 97.812 30.3412 97.8287 30.2006H97.812L95.6231 32.7323C95.6231 33.0291 95.6559 33.201 95.7061 33.2791C95.7555 33.3573 95.8886 33.4198 96.0705 33.4511V33.6386H94.4621V33.4511C94.6614 33.4042 94.7938 33.3417 94.8433 33.2636C94.8935 33.1854 94.9262 33.0135 94.9262 32.7323V29.6068C94.9262 29.2786 94.8935 29.0911 94.8273 29.0286C94.7444 28.9661 94.628 28.9192 94.4621 28.8723V28.7004H96.0705V28.8723C95.9046 28.9192 95.789 28.9661 95.7228 29.0286C95.6559 29.1067 95.6231 29.2942 95.6231 29.6068V31.2008C95.6231 31.5602 95.6231 31.8571 95.6064 32.0915H95.6231L97.812 29.5599C97.812 29.3099 97.7785 29.138 97.729 29.0599C97.6796 28.9817 97.5632 28.9192 97.3646 28.8723V28.7004H98.9562V28.8723C98.7904 28.9192 98.6747 28.9661 98.6078 29.0286C98.5416 29.1067 98.5089 29.2942 98.5089 29.6068V32.7323C98.5089 33.0291 98.5416 33.201 98.5918 33.2791C98.658 33.3573 98.7736 33.4198 98.9562 33.4511V33.6386H97.3646ZM97.9946 27.3721C97.9946 27.6378 97.8614 27.8409 97.6294 27.9972C97.3806 28.1535 97.0656 28.216 96.7012 28.216C96.3025 28.216 96.0043 28.1535 95.789 27.9972C95.5569 27.8565 95.4573 27.6378 95.4573 27.3721V27.2158H96.104V27.3721C96.104 27.5596 96.1534 27.7159 96.2363 27.8097C96.336 27.9035 96.4851 27.9503 96.7172 27.9503C96.95 27.9503 97.0991 27.9035 97.1987 27.8097C97.2977 27.7315 97.3479 27.5752 97.3479 27.3721V27.2158H97.9946V27.3721ZM106.983 33.6386V33.4511C106.866 33.2166 106.783 32.9979 106.717 32.826L106.419 32.0915C106.319 31.8415 106.236 31.6695 106.153 31.5602C106.087 31.4508 105.988 31.3727 105.888 31.3101C105.772 31.2633 105.623 31.2476 105.441 31.2476H104.976V32.7323C104.976 33.0291 105.009 33.201 105.059 33.2791C105.126 33.3573 105.241 33.4198 105.424 33.4511V33.6386H103.799V33.4511C103.981 33.4198 104.097 33.3729 104.163 33.2948C104.23 33.2323 104.263 33.0448 104.263 32.7323V29.6068C104.263 29.2786 104.23 29.0911 104.163 29.0286C104.097 28.9661 103.981 28.9192 103.799 28.8723V28.7004H105.424V28.8723C105.258 28.9192 105.142 28.9661 105.075 29.0286C105.009 29.1067 104.976 29.2942 104.976 29.6068V30.9351H105.441C105.656 30.9351 105.805 30.8726 105.938 30.7476C106.054 30.6382 106.203 30.3412 106.386 29.8568C106.551 29.4037 106.717 29.0754 106.883 28.9035C107.049 28.7316 107.331 28.6379 107.712 28.6379C107.829 28.6379 107.995 28.6692 108.193 28.716V29.5443H107.812C107.779 29.3099 107.663 29.1848 107.464 29.1848C107.347 29.1848 107.248 29.2474 107.165 29.3411C107.082 29.4505 106.966 29.685 106.817 30.0287C106.7 30.3256 106.602 30.5444 106.519 30.6695C106.419 30.8101 106.303 30.9195 106.153 31.0132V31.0445C106.568 31.1695 106.9 31.4664 107.132 31.9352L107.464 32.6697C107.596 32.951 107.712 33.1385 107.829 33.2479C107.928 33.3729 108.078 33.4355 108.293 33.4511V33.6386H106.983ZM111.809 33.7011C111.494 33.7011 111.228 33.6386 110.963 33.5448C110.714 33.4511 110.498 33.3104 110.316 33.1072C110.133 32.9041 110.001 32.6541 109.901 32.3259C109.802 32.0134 109.752 31.6383 109.752 31.2008C109.752 30.6695 109.835 30.2163 110.018 29.8256C110.183 29.4349 110.432 29.138 110.764 28.9348C111.079 28.7473 111.46 28.6379 111.891 28.6379C112.339 28.6379 112.721 28.7316 113.036 28.9192C113.351 29.1067 113.583 29.388 113.749 29.7631C113.898 30.1225 113.981 30.5757 113.981 31.107C113.981 31.6695 113.882 32.1384 113.716 32.5291C113.533 32.9197 113.285 33.2167 112.953 33.4042C112.621 33.5917 112.24 33.7011 111.809 33.7011ZM110.548 31.107C110.548 31.8415 110.664 32.404 110.896 32.7947C111.112 33.1854 111.46 33.3729 111.891 33.3729C112.174 33.3729 112.406 33.2948 112.604 33.1229C112.804 32.951 112.936 32.7166 113.036 32.3884C113.135 32.0602 113.185 31.6852 113.185 31.2476C113.185 30.732 113.135 30.2944 113.019 29.9506C112.903 29.6068 112.753 29.3567 112.555 29.1848C112.356 29.0286 112.124 28.9505 111.858 28.9505C111.626 28.9505 111.427 29.0129 111.262 29.1067C111.096 29.2161 110.963 29.3567 110.864 29.5443C110.747 29.7318 110.664 29.9506 110.615 30.2163C110.565 30.4819 110.548 30.7788 110.548 31.107ZM121.377 28.8723C121.261 28.9035 121.178 28.9348 121.128 28.9505C121.079 28.9817 121.046 29.0129 121.012 29.0599C120.979 29.0911 120.963 29.1536 120.946 29.2318C120.929 29.3099 120.929 29.4349 120.929 29.6068V32.7323C120.929 32.8885 120.929 33.0135 120.946 33.0917C120.963 33.1542 120.979 33.2167 120.996 33.2636C121.029 33.3104 121.079 33.3417 121.128 33.3729C121.178 33.4042 121.261 33.4355 121.377 33.4511V33.6386H119.785V33.4511C119.918 33.4198 120.018 33.3885 120.084 33.3417C120.133 33.2948 120.184 33.2323 120.2 33.1542C120.216 33.0604 120.233 32.9197 120.233 32.7323V31.3414C120.233 30.982 120.233 30.6069 120.25 30.2319C120.25 29.8725 120.266 29.6068 120.282 29.4818H120.216L118.691 33.0604H118.259L116.85 29.4193H116.783C116.783 29.5599 116.8 29.8256 116.817 30.2163C116.834 30.6069 116.834 30.9976 116.834 31.4039V32.7323C116.834 32.8885 116.834 33.0135 116.85 33.0917C116.866 33.1542 116.883 33.2167 116.917 33.2636C116.933 33.3104 116.966 33.3417 117.032 33.3729C117.082 33.4042 117.165 33.4355 117.281 33.4511V33.6386H115.888V33.4511C116.037 33.4198 116.154 33.3729 116.203 33.3261C116.253 33.2791 116.286 33.2167 116.303 33.1229C116.319 33.0448 116.336 32.9041 116.336 32.7323V29.6068C116.336 29.4349 116.319 29.3099 116.303 29.2318C116.303 29.1692 116.269 29.1067 116.253 29.0599C116.22 29.0129 116.186 28.9817 116.137 28.9661C116.087 28.9348 116.004 28.9035 115.888 28.8723V28.7004H117.248L118.591 32.2165L120.084 28.7004H121.377V28.8723ZM127.679 28.7004V28.8723C127.53 28.9035 127.43 28.9505 127.381 28.9817C127.314 29.0286 127.281 29.0911 127.264 29.1848C127.231 29.263 127.231 29.4037 127.231 29.6068V32.7323C127.231 32.8729 127.231 32.9823 127.248 33.0448C127.248 33.1229 127.264 33.1698 127.281 33.2166C127.298 33.2636 127.314 33.2948 127.347 33.3104C127.364 33.3417 127.413 33.3729 127.447 33.3885C127.496 33.4042 127.579 33.4355 127.679 33.4511V33.6386H126.054V33.4511C126.203 33.4198 126.303 33.3885 126.352 33.3417C126.418 33.3104 126.452 33.2479 126.469 33.1542C126.501 33.076 126.501 32.9354 126.501 32.7323V29.0286H124.478V32.7323C124.478 32.8885 124.478 33.0135 124.495 33.0917C124.495 33.1542 124.528 33.2167 124.544 33.2636C124.578 33.3104 124.611 33.3417 124.661 33.3729C124.71 33.4042 124.81 33.4355 124.926 33.4511V33.6386H123.301V33.4511C123.466 33.4198 123.566 33.3729 123.616 33.3261C123.682 33.2791 123.715 33.2167 123.732 33.1229C123.749 33.0448 123.749 32.9041 123.749 32.7323V29.6068C123.749 29.4349 123.749 29.3099 123.732 29.2318C123.715 29.1692 123.699 29.1067 123.666 29.0599C123.649 29.0129 123.6 28.9817 123.549 28.9661C123.5 28.9348 123.417 28.9035 123.301 28.8723V28.7004H127.679ZM133.998 33.6386H132.372V33.4511C132.588 33.4042 132.72 33.3417 132.77 33.2479C132.82 33.1542 132.837 32.9823 132.837 32.7323V29.0129H131.775C131.709 29.638 131.609 30.2944 131.46 30.9976C131.311 31.7165 131.145 32.2634 130.979 32.6853C130.814 33.0917 130.648 33.3573 130.465 33.4979C130.282 33.623 130.1 33.7011 129.868 33.7011C129.653 33.7011 129.453 33.6698 129.271 33.6074V32.8729H129.653C129.669 33.0448 129.768 33.1385 129.918 33.1385C130.034 33.1385 130.15 33.076 130.266 32.9666C130.365 32.8572 130.499 32.5916 130.648 32.1697C130.797 31.7477 130.929 31.2476 131.046 30.6538C131.178 30.0599 131.244 29.638 131.244 29.3567C131.244 29.1848 131.211 29.0599 131.145 28.9973C131.095 28.9348 130.995 28.888 130.846 28.8723V28.7004H133.998V28.8723C133.815 28.9192 133.683 28.9817 133.632 29.0442C133.583 29.1224 133.549 29.3099 133.549 29.6068V32.7323C133.549 33.0135 133.583 33.201 133.632 33.2791C133.683 33.3573 133.815 33.4198 133.998 33.4511V33.6386ZM139.519 28.7004V29.7943H139.138C139.105 29.6693 139.072 29.5755 139.022 29.4818C138.989 29.388 138.939 29.3099 138.89 29.2474C138.856 29.2005 138.807 29.138 138.757 29.1067C138.707 29.0754 138.641 29.0442 138.575 29.0286C138.492 29.0286 138.409 29.0129 138.309 29.0129H137.099V30.9038H137.911C138.027 30.9038 138.126 30.9038 138.177 30.8726C138.243 30.8414 138.309 30.7788 138.342 30.7163C138.392 30.6382 138.425 30.5288 138.458 30.3725H138.823V31.7633H138.458C138.425 31.6227 138.392 31.5133 138.342 31.4352C138.309 31.357 138.243 31.3101 138.193 31.2789C138.126 31.2476 138.044 31.232 137.911 31.232H137.099V33.3104H138.292C138.409 33.3104 138.524 33.3104 138.591 33.2791C138.674 33.2636 138.74 33.2323 138.79 33.1854C138.856 33.1385 138.906 33.0604 138.939 32.9823C138.989 32.9041 139.022 32.826 139.055 32.7478C139.089 32.6541 139.122 32.5291 139.172 32.3728H139.553L139.487 33.6386H135.921V33.4511C136.087 33.4198 136.203 33.3729 136.253 33.3261C136.303 33.2791 136.335 33.2167 136.352 33.1229C136.369 33.0448 136.386 32.9041 136.386 32.7323V29.6068C136.386 29.4349 136.369 29.3099 136.352 29.2318C136.352 29.1692 136.319 29.1067 136.303 29.0599C136.269 29.0129 136.22 28.9817 136.186 28.9661C136.137 28.9348 136.054 28.9035 135.921 28.8723V28.7004H139.519ZM144.628 33.6386V33.4511C144.511 33.2166 144.428 32.9979 144.362 32.826L144.064 32.0915C143.964 31.8415 143.881 31.6695 143.798 31.5602C143.715 31.4508 143.632 31.3727 143.516 31.3101C143.417 31.2633 143.267 31.2476 143.085 31.2476H142.621V32.7323C142.621 33.0291 142.654 33.201 142.703 33.2791C142.754 33.3573 142.886 33.4198 143.069 33.4511V33.6386H141.444V33.4511C141.626 33.4198 141.742 33.3729 141.808 33.2948C141.874 33.2323 141.908 33.0448 141.908 32.7323V29.6068C141.908 29.2786 141.874 29.0911 141.808 29.0286C141.742 28.9661 141.609 28.9192 141.444 28.8723V28.7004H143.069V28.8723C142.903 28.9192 142.786 28.9661 142.72 29.0286C142.654 29.1067 142.621 29.2942 142.621 29.6068V30.9351H143.085C143.284 30.9351 143.45 30.8726 143.566 30.7476C143.699 30.6382 143.848 30.3412 144.03 29.8568C144.196 29.4037 144.362 29.0754 144.528 28.9035C144.694 28.7316 144.976 28.6379 145.357 28.6379C145.473 28.6379 145.639 28.6692 145.821 28.716V29.5443H145.457C145.423 29.3099 145.308 29.1848 145.108 29.1848C144.992 29.1848 144.893 29.2474 144.81 29.3411C144.727 29.4505 144.611 29.685 144.462 30.0287C144.345 30.3256 144.246 30.5444 144.163 30.6695C144.064 30.8101 143.947 30.9195 143.798 31.0132V31.0445C144.213 31.1695 144.545 31.4664 144.777 31.9352L145.108 32.6697C145.241 32.951 145.357 33.1385 145.473 33.2479C145.572 33.3729 145.722 33.4355 145.938 33.4511V33.6386H144.628ZM150.946 28.8098V29.8099H150.564C150.498 29.5912 150.415 29.4193 150.332 29.3099C150.232 29.1848 150.117 29.0911 150 29.0442C149.868 28.9817 149.719 28.9505 149.536 28.9505C149.287 28.9505 149.039 29.0442 148.839 29.2005C148.641 29.3724 148.475 29.6224 148.359 29.9506C148.243 30.2788 148.176 30.685 148.176 31.1539C148.176 31.6227 148.226 32.029 148.326 32.3572C148.425 32.701 148.558 32.951 148.756 33.1229C148.939 33.2948 149.171 33.3729 149.453 33.3729C149.669 33.3729 149.834 33.3417 149.968 33.2948C150.1 33.2323 150.216 33.1385 150.299 33.0135C150.398 32.9041 150.481 32.7166 150.564 32.4822H150.946V33.5136C150.697 33.5761 150.448 33.623 150.2 33.6542C149.951 33.6855 149.669 33.7011 149.37 33.7011C148.724 33.7011 148.226 33.4823 147.894 33.076C147.563 32.6541 147.397 32.0446 147.397 31.2164C147.397 30.7007 147.48 30.2475 147.662 29.8568C147.828 29.4661 148.077 29.1692 148.425 28.9505C148.756 28.7473 149.154 28.6379 149.619 28.6379C149.851 28.6379 150.067 28.6535 150.266 28.6692C150.464 28.7004 150.681 28.7316 150.946 28.8098Z" fill="#141414"></path><path fill-rule="evenodd" clip-rule="evenodd" d="M61.1934 16.2212C52.3875 28.6292 41.3926 38.0993 23.8803 35.6927C18.0264 34.8957 13.6317 33.4267 12.2221 32.958C10.8125 32.4735 10.7296 32.4266 10.7296 32.4266C10.7296 32.4266 7.79425 33.4112 6.53392 34.0363C5.27357 34.6613 0 37.0992 0 37.0992C0 37.0992 5.60524 32.4422 9.15412 30.6607C12.7196 28.8949 17.3298 26.832 17.3298 26.832C17.3298 26.832 19.353 26.5664 23.1175 27.3165C26.8819 28.0666 35.0411 30.2857 35.0411 30.2857C35.0411 30.2857 30.265 28.2697 27.6614 27.3321C25.0577 26.4101 21.2933 25.2849 21.2933 25.2849C25.3563 23.6597 29.0212 21.7531 33.4988 22.894L42.6529 25.2068L33.93 21.6282C33.2335 21.3469 41.1604 19.4403 43.8138 20.0811C44.7424 20.3154 49.1868 21.6438 49.1868 21.6438L43.4821 19.4091C45.3892 18.4715 51.4919 18.1277 53.9463 17.862C53.9463 17.862 48.822 17.8776 46.3013 18.0651C43.7806 18.237 34.0958 19.6279 34.0958 19.6279C34.0958 19.6279 29.5851 20.3311 25.4392 21.4406C21.2933 22.5346 16.5172 23.8941 14.776 24.6443C13.0181 25.3943 10.9783 25.9882 10.232 26.5195C9.48583 27.0352 11.5256 23.5347 11.5256 23.5347C11.5256 23.5347 14.2619 19.831 15.6217 18.5809C16.9815 17.3306 18.8389 15.9398 19.6018 15.5648C20.3646 15.1897 20.3646 15.1897 20.3646 15.1897V2.95355L25.5718 0V19.2528H26.998V16.1899L29.3861 18.3152H30.9449V1.85964L33.4988 0.484446L37.4457 2.76603V4.31313L34.7924 2.76603V17.4713H36.3843V14.0177L38.4573 15.471V17.1275H39.9995V7.96992L44.0459 5.76647V16.7212C44.0459 16.7212 45.6711 16.6274 47.0144 16.5806L45.638 15.5335V12.7831L47.8767 14.4865V16.5649C49.0542 16.5493 49.4025 16.5962 49.4025 16.5962V14.049C49.4025 14.049 52.5036 14.299 56.1188 14.9709C59.7174 15.6429 61.1934 16.2212 61.1934 16.2212ZM45.638 8.07933L47.8767 9.78269V12.5331L45.638 10.8297V8.07933ZM36.4009 9.57952L38.6397 11.2985V14.049L36.4009 12.33V9.57952ZM36.4009 4.62568L38.6397 6.34468V9.09505L36.4009 7.37605V4.62568ZM27.081 2.70352L29.4192 4.50066V6.68848L27.081 4.90697V2.70352ZM27.081 7.43861L29.4192 9.2201V11.4236L27.081 9.62644V7.43861ZM27.081 12.0799L29.4192 13.8771V16.0805L27.081 14.2833V12.0799Z" fill="url(#paint0_linear_5539_201)"></path><path fill-rule="evenodd" clip-rule="evenodd" d="M53.3163 22.6592C51.4589 28.9883 41.7907 34.3016 30.1657 34.9891C23.2337 35.4111 17.0149 34.0984 12.7197 31.6762C17.1641 32.9263 22.5538 33.5046 28.3415 33.1764C40.4143 32.5044 50.381 28.0819 53.3163 22.6592Z" fill="url(#paint1_linear_5539_201)"></path><defs><linearGradient id="paint0_linear_5539_201" x1="-0.000995015" y1="18.5468" x2="61.1927" y2="18.5468" gradientUnits="userSpaceOnUse"><stop stop-color="#579F36"></stop><stop offset="0.495" stop-color="#82B64C"></stop><stop offset="1" stop-color="#ADCD63"></stop></linearGradient><linearGradient id="paint1_linear_5539_201" x1="12.7217" y1="28.8612" x2="53.3141" y2="28.8612" gradientUnits="userSpaceOnUse"><stop stop-color="#81BC4C"></stop><stop offset="1" stop-color="#A6C85F"></stop></linearGradient></defs></svg> 